<?xml version="1.0" encoding="UTF-8"?><svg xmlns="http://www.w3.org/2000/svg" xmlns:xlink="http://www.w3.org/1999/xlink" fill-opacity="1" color-rendering="auto" color-interpolation="auto" text-rendering="auto" stroke="black" stroke-linecap="square" width="471" stroke-miterlimit="10" shape-rendering="auto" stroke-opacity="1" fill="black" stroke-dasharray="none" font-weight="normal" stroke-width="1" height="682" font-family="'Dialog'" font-style="normal" stroke-linejoin="miter" font-size="12px" stroke-dashoffset="0" image-rendering="auto">
  <!--Generated by ySVG 2.6-->
  <defs id="genericDefs"/>
  <g>
    <defs id="defs1">
      <clipPath clipPathUnits="userSpaceOnUse" id="clipPath1">
        <path d="M0 0 L471 0 L471 682 L0 682 L0 0 Z"/>
      </clipPath>
      <clipPath clipPathUnits="userSpaceOnUse" id="clipPath2">
        <path d="M337 424 L808 424 L808 1106 L337 1106 L337 424 Z"/>
      </clipPath>
    </defs>
    <g fill="white" text-rendering="geometricPrecision" shape-rendering="geometricPrecision" transform="translate(-337,-424)" stroke="white">
      <rect x="337" width="471" height="682" y="424" clip-path="url(#clipPath2)" stroke="none"/>
    </g>
    <g text-rendering="geometricPrecision" stroke-miterlimit="1.45" shape-rendering="geometricPrecision" transform="matrix(1,0,0,1,-337,-424)" stroke-linecap="butt">
      <path fill="none" d="M399.3625 509.6853 L576.6375 509.6853 L576.6375 549.6853 L399.3625 549.6853 Z" clip-path="url(#clipPath2)"/>
      <text x="439.8535" xml:space="preserve" y="533.8396" clip-path="url(#clipPath2)" font-family="sans-serif" stroke="none">Сохранение AX</text>
    </g>
    <g text-rendering="geometricPrecision" stroke-miterlimit="1.45" shape-rendering="geometricPrecision" transform="matrix(1,0,0,1,-337,-424)" stroke-linecap="butt">
      <path fill="none" d="M399.3625 579.6853 L576.6375 579.6853 L576.6375 657.2011 L399.3625 657.2011 Z" clip-path="url(#clipPath2)"/>
      <text x="419.5889" xml:space="preserve" y="594.66" clip-path="url(#clipPath2)" font-family="sans-serif" stroke="none">Декремент значения </text>
      <text x="418.6074" xml:space="preserve" y="608.6287" clip-path="url(#clipPath2)" font-family="sans-serif" stroke="none">счетчика времени до </text>
      <text x="411.9248" xml:space="preserve" y="622.5975" clip-path="url(#clipPath2)" font-family="sans-serif" stroke="none">отключения моторчика </text>
      <text x="418.8359" xml:space="preserve" y="636.5662" clip-path="url(#clipPath2)" font-family="sans-serif" stroke="none">дисковода по адресу </text>
      <text x="458.4775" xml:space="preserve" y="650.535" clip-path="url(#clipPath2)" font-family="sans-serif" stroke="none">DS:0040h</text>
    </g>
    <g text-rendering="geometricPrecision" stroke-miterlimit="1.45" shape-rendering="geometricPrecision" transform="matrix(1,0,0,1,-337,-424)" stroke-linecap="butt">
      <path fill="none" d="M488 687.2011 L623.4296 735.7182 L488 784.2353 L352.5704 735.7182 Z" clip-path="url(#clipPath2)"/>
      <text x="425.2139" xml:space="preserve" y="718.9194" clip-path="url(#clipPath2)" font-family="sans-serif" stroke="none">Значение счетчика </text>
      <text x="409.0391" xml:space="preserve" y="732.8881" clip-path="url(#clipPath2)" font-family="sans-serif" stroke="none">времени до отключения </text>
      <text x="384.9189" xml:space="preserve" y="746.8569" clip-path="url(#clipPath2)" font-family="sans-serif" stroke="none">моторчика дисковода по адресу</text>
      <text x="435.6992" xml:space="preserve" y="760.8256" clip-path="url(#clipPath2)" font-family="sans-serif" stroke="none"> DS:0040h &lt;&gt; 0?</text>
    </g>
    <g text-rendering="geometricPrecision" stroke-miterlimit="1.45" shape-rendering="geometricPrecision" transform="matrix(1,0,0,1,-337,-424)" stroke-linecap="butt">
      <path fill="none" d="M615.4081 765.7831 L792.683 765.7831 L792.683 820.9922 L615.4081 820.9922 Z" clip-path="url(#clipPath2)"/>
      <text x="623.1539" xml:space="preserve" y="783.5732" clip-path="url(#clipPath2)" font-family="sans-serif" stroke="none">Сброс статуса моторчика</text>
      <text x="634.8815" xml:space="preserve" y="797.5419" clip-path="url(#clipPath2)" font-family="sans-serif" stroke="none">дисковода по адресу </text>
      <text x="674.8893" xml:space="preserve" y="811.5107" clip-path="url(#clipPath2)" font-family="sans-serif" stroke="none">DS:003Fh</text>
    </g>
    <g text-rendering="geometricPrecision" stroke-miterlimit="1.45" shape-rendering="geometricPrecision" transform="matrix(1,0,0,1,-337,-424)" stroke-linecap="butt">
      <path fill="none" d="M615.4081 872.6259 L792.683 872.6259 L792.683 935.9465 L615.4081 935.9465 Z" clip-path="url(#clipPath2)"/>
      <text x="628.568" xml:space="preserve" y="887.4873" clip-path="url(#clipPath2)" font-family="sans-serif" stroke="none">Передача контроллеру </text>
      <text x="624.5338" xml:space="preserve" y="901.4561" clip-path="url(#clipPath2)" font-family="sans-serif" stroke="none">дисковода команды 0Ch </text>
      <text x="621.1412" xml:space="preserve" y="915.4248" clip-path="url(#clipPath2)" font-family="sans-serif" stroke="none">в порт 3F2h на остановку </text>
      <text x="634.5475" xml:space="preserve" y="929.3936" clip-path="url(#clipPath2)" font-family="sans-serif" stroke="none">моторчика дисковода</text>
    </g>
    <g text-rendering="geometricPrecision" stroke-miterlimit="1.45" shape-rendering="geometricPrecision" transform="matrix(1,0,0,1,-337,-424)" stroke-linecap="butt">
      <path fill="none" d="M399.3625 980.5277 L576.6375 980.5277 L576.6375 1020.5277 L399.3625 1020.5277 Z" clip-path="url(#clipPath2)"/>
      <text x="426.1514" xml:space="preserve" y="1004.682" clip-path="url(#clipPath2)" font-family="sans-serif" stroke="none">Восстановление AX</text>
    </g>
    <g text-rendering="geometricPrecision" stroke-miterlimit="1.45" shape-rendering="geometricPrecision" transform="matrix(1,0,0,1,-337,-424)" stroke-linecap="butt">
      <circle fill="none" r="20" clip-path="url(#clipPath2)" cx="487.493" cy="459.6853"/>
      <text x="483.3885" xml:space="preserve" y="463.8396" clip-path="url(#clipPath2)" font-family="sans-serif" stroke="none">А</text>
    </g>
    <g text-rendering="geometricPrecision" stroke-miterlimit="1.45" shape-rendering="geometricPrecision" transform="matrix(1,0,0,1,-337,-424)" stroke-linecap="butt">
      <circle fill="none" r="20" clip-path="url(#clipPath2)" cx="488" cy="1070.5277"/>
      <text x="483.8838" xml:space="preserve" y="1074.682" clip-path="url(#clipPath2)" font-family="sans-serif" stroke="none">Б</text>
    </g>
    <g text-rendering="geometricPrecision" stroke-miterlimit="1.45" shape-rendering="geometricPrecision" transform="matrix(1,0,0,1,-337,-424)" stroke-linecap="butt">
      <path fill="none" d="M488 549.6645 L488 571.6544" clip-path="url(#clipPath2)"/>
    </g>
    <g text-rendering="geometricPrecision" stroke-miterlimit="1.45" shape-rendering="geometricPrecision" transform="matrix(1,0,0,1,-337,-424)" stroke-linecap="butt">
      <path d="M488 579.6544 L493 567.6544 L488 570.6544 L483 567.6544 Z" stroke="none" clip-path="url(#clipPath2)"/>
      <path fill="none" d="M488 657.1817 L488 679.2081" clip-path="url(#clipPath2)"/>
      <path d="M488 687.2081 L493 675.2081 L488 678.2081 L483 675.2081 Z" clip-path="url(#clipPath2)" stroke="none"/>
      <path fill="none" d="M623.4241 735.7182 L704.0455 735.7182 L704.0455 757.7637" clip-path="url(#clipPath2)"/>
      <path d="M704.0455 765.7637 L709.0455 753.7637 L704.0455 756.7637 L699.0455 753.7637 Z" clip-path="url(#clipPath2)" stroke="none"/>
      <text x="660.5936" xml:space="preserve" y="725.2626" clip-path="url(#clipPath2)" font-family="sans-serif" stroke="none">Нет</text>
      <path fill="none" d="M704.0455 820.9769 L704.0455 864.5977" clip-path="url(#clipPath2)"/>
      <path d="M704.0455 872.5977 L709.0455 860.5977 L704.0455 863.5977 L699.0455 860.5977 Z" clip-path="url(#clipPath2)" stroke="none"/>
      <path fill="none" d="M488 784.2386 L488 972.5411" clip-path="url(#clipPath2)"/>
      <path d="M488 980.5411 L493 968.5411 L488 971.5411 L483 968.5411 Z" clip-path="url(#clipPath2)" stroke="none"/>
      <text x="449.6357" xml:space="preserve" y="831.783" clip-path="url(#clipPath2)" font-family="sans-serif" stroke="none">Да</text>
      <path fill="none" d="M704.0455 935.9459 L704.0455 960.9142 L487.493 960.9142 L487.493 972.5276" clip-path="url(#clipPath2)"/>
      <path d="M487.493 980.5276 L492.493 968.5276 L487.493 971.5276 L482.493 968.5276 Z" clip-path="url(#clipPath2)" stroke="none"/>
      <path fill="none" d="M487.6378 479.6804 L487.7974 501.7128" clip-path="url(#clipPath2)"/>
      <path d="M487.8553 509.7126 L492.7683 497.6767 L487.7902 500.7129 L482.7686 497.7491 Z" clip-path="url(#clipPath2)" stroke="none"/>
      <path fill="none" d="M488 1020.5228 L488 1042.5551" clip-path="url(#clipPath2)"/>
      <path d="M488 1050.5551 L493 1038.5551 L488 1041.5551 L483 1038.5551 Z" clip-path="url(#clipPath2)" stroke="none"/>
    </g>
  </g>
</svg>
