<?xml version="1.0" encoding="UTF-8"?><svg xmlns="http://www.w3.org/2000/svg" xmlns:xlink="http://www.w3.org/1999/xlink" fill-opacity="1" color-rendering="auto" color-interpolation="auto" text-rendering="auto" stroke="black" stroke-linecap="square" width="667" stroke-miterlimit="10" shape-rendering="auto" stroke-opacity="1" fill="black" stroke-dasharray="none" font-weight="normal" stroke-width="1" height="1262" font-family="'Dialog'" font-style="normal" stroke-linejoin="miter" font-size="12px" stroke-dashoffset="0" image-rendering="auto">
  <!--Generated by ySVG 2.6-->
  <defs id="genericDefs"/>
  <g>
    <defs id="defs1">
      <clipPath clipPathUnits="userSpaceOnUse" id="clipPath1">
        <path d="M0 0 L667 0 L667 1262 L0 1262 L0 0 Z"/>
      </clipPath>
      <clipPath clipPathUnits="userSpaceOnUse" id="clipPath2">
        <path d="M559 130 L1226 130 L1226 1392 L559 1392 L559 130 Z"/>
      </clipPath>
    </defs>
    <g fill="white" text-rendering="geometricPrecision" shape-rendering="geometricPrecision" transform="translate(-559,-130)" stroke="white">
      <rect x="559" width="667" height="1262" y="130" clip-path="url(#clipPath2)" stroke="none"/>
    </g>
    <g text-rendering="geometricPrecision" stroke-miterlimit="1.45" shape-rendering="geometricPrecision" transform="matrix(1,0,0,1,-559,-130)" stroke-linecap="butt">
      <rect x="651" y="145.4522" clip-path="url(#clipPath2)" fill="none" width="80" rx="12.3954" ry="12.3954" height="24.7909"/>
      <text x="668.084" xml:space="preserve" y="162.002" clip-path="url(#clipPath2)" font-family="sans-serif" stroke="none">Начало</text>
    </g>
    <g text-rendering="geometricPrecision" stroke-miterlimit="1.45" shape-rendering="geometricPrecision" transform="matrix(1,0,0,1,-559,-130)" stroke-linecap="butt">
      <path fill="none" d="M602.3625 288.4212 L779.6375 288.4212 L779.6375 339.828 L602.3625 339.828 Z" clip-path="url(#clipPath2)"/>
      <text x="651.0684" xml:space="preserve" y="311.2946" clip-path="url(#clipPath2)" font-family="sans-serif" stroke="none">Сохранение </text>
      <text x="646.583" xml:space="preserve" y="325.2633" clip-path="url(#clipPath2)" font-family="sans-serif" stroke="none">ES, DS, AX, DX</text>
    </g>
    <g text-rendering="geometricPrecision" stroke-miterlimit="1.45" shape-rendering="geometricPrecision" transform="matrix(1,0,0,1,-559,-130)" stroke-linecap="butt">
      <path fill="none" d="M602.3625 364.4532 L779.6375 364.4532 L779.6375 415.86 L602.3625 415.86 Z" clip-path="url(#clipPath2)"/>
      <text x="633.3496" xml:space="preserve" y="394.3109" clip-path="url(#clipPath2)" font-family="sans-serif" stroke="none">Загрузка в DS 40h</text>
    </g>
    <g text-rendering="geometricPrecision" stroke-miterlimit="1.45" shape-rendering="geometricPrecision" transform="matrix(1,0,0,1,-559,-130)" stroke-linecap="butt">
      <path fill="none" d="M602.3625 440.4853 L779.6375 440.4853 L779.6375 491.8921 L602.3625 491.8921 Z" clip-path="url(#clipPath2)"/>
      <text x="634.1787" xml:space="preserve" y="470.343" clip-path="url(#clipPath2)" font-family="sans-serif" stroke="none">Загрузка в ES 00h</text>
    </g>
    <g text-rendering="geometricPrecision" stroke-miterlimit="1.45" shape-rendering="geometricPrecision" transform="matrix(1,0,0,1,-559,-130)" stroke-linecap="butt">
      <path fill="none" d="M602.3625 516.4077 L779.6375 516.4077 L779.6375 567.8146 L602.3625 567.8146 Z" clip-path="url(#clipPath2)"/>
      <text x="608.1016" xml:space="preserve" y="532.2967" clip-path="url(#clipPath2)" font-family="sans-serif" stroke="none">Инкремент двух младших</text>
      <text x="618.2061" xml:space="preserve" y="546.2654" clip-path="url(#clipPath2)" font-family="sans-serif" stroke="none">байтов счетчика тиков</text>
      <text x="627.5225" xml:space="preserve" y="560.2342" clip-path="url(#clipPath2)" font-family="sans-serif" stroke="none">по адресу DS:006Ch</text>
    </g>
    <g text-rendering="geometricPrecision" stroke-miterlimit="1.45" shape-rendering="geometricPrecision" transform="matrix(1,0,0,1,-559,-130)" stroke-linecap="butt">
      <path fill="none" d="M691 588.66 L807.0455 635.9097 L691 683.1593 L574.9545 635.9097 Z" clip-path="url(#clipPath2)"/>
      <text x="627.71" xml:space="preserve" y="633.0796" clip-path="url(#clipPath2)" font-family="sans-serif" stroke="none">Два младших байта</text>
      <text x="621.2207" xml:space="preserve" y="647.0483" clip-path="url(#clipPath2)" font-family="sans-serif" stroke="none">счетчика тиков &lt;&gt; 0?</text>
    </g>
    <g text-rendering="geometricPrecision" stroke-miterlimit="1.45" shape-rendering="geometricPrecision" transform="matrix(1,0,0,1,-559,-130)" stroke-linecap="butt">
      <path fill="none" d="M818.4081 689.6143 L995.683 689.6143 L995.683 741.0211 L818.4081 741.0211 Z" clip-path="url(#clipPath2)"/>
      <text x="826.0543" xml:space="preserve" y="705.5032" clip-path="url(#clipPath2)" font-family="sans-serif" stroke="none">Инкремент двух старших</text>
      <text x="822.8434" xml:space="preserve" y="719.472" clip-path="url(#clipPath2)" font-family="sans-serif" stroke="none">байтов счетчика тиков по </text>
      <text x="853.4674" xml:space="preserve" y="733.4407" clip-path="url(#clipPath2)" font-family="sans-serif" stroke="none">адресу DS:006Eh</text>
    </g>
    <g text-rendering="geometricPrecision" stroke-miterlimit="1.45" shape-rendering="geometricPrecision" transform="matrix(1,0,0,1,-559,-130)" stroke-linecap="butt">
      <path fill="none" d="M691 807.0161 L807.0455 854.2657 L691 901.5153 L574.9545 854.2657 Z" clip-path="url(#clipPath2)"/>
      <text x="629.6172" xml:space="preserve" y="844.4512" clip-path="url(#clipPath2)" font-family="sans-serif" stroke="none">Два старших байта</text>
      <text x="606.6016" xml:space="preserve" y="858.42" clip-path="url(#clipPath2)" font-family="sans-serif" stroke="none">счетчика тиков по адресу </text>
      <text x="633.0127" xml:space="preserve" y="872.3887" clip-path="url(#clipPath2)" font-family="sans-serif" stroke="none">DS:006Eh &lt;&gt; 18h?</text>
    </g>
    <g text-rendering="geometricPrecision" stroke-miterlimit="1.45" shape-rendering="geometricPrecision" transform="matrix(1,0,0,1,-559,-130)" stroke-linecap="butt">
      <path fill="none" d="M907.2484 887.3455 L1023.2939 934.5952 L907.2484 981.8448 L791.2028 934.5952 Z" clip-path="url(#clipPath2)"/>
      <text x="843.9583" xml:space="preserve" y="924.7808" clip-path="url(#clipPath2)" font-family="sans-serif" stroke="none">Два младших байта</text>
      <text x="824.7571" xml:space="preserve" y="938.7495" clip-path="url(#clipPath2)" font-family="sans-serif" stroke="none">счетчика тиков по адресу</text>
      <text x="844.7464" xml:space="preserve" y="952.7183" clip-path="url(#clipPath2)" font-family="sans-serif" stroke="none">DS:006Ch &lt;&gt; 0B0h?</text>
    </g>
    <g text-rendering="geometricPrecision" stroke-miterlimit="1.45" shape-rendering="geometricPrecision" transform="matrix(1,0,0,1,-559,-130)" stroke-linecap="butt">
      <path fill="none" d="M1032.7316 971.5274 L1210.0065 971.5274 L1210.0065 1022.9343 L1032.7316 1022.9343 Z" clip-path="url(#clipPath2)"/>
      <text x="1040.6122" xml:space="preserve" y="987.4164" clip-path="url(#clipPath2)" font-family="sans-serif" stroke="none">Обнуление двух старших</text>
      <text x="1039.0741" xml:space="preserve" y="1001.3851" clip-path="url(#clipPath2)" font-family="sans-serif" stroke="none">байтов счетчика тиков по</text>
      <text x="1067.7909" xml:space="preserve" y="1015.3539" clip-path="url(#clipPath2)" font-family="sans-serif" stroke="none">адресу DS:006Eh</text>
    </g>
    <g text-rendering="geometricPrecision" stroke-miterlimit="1.45" shape-rendering="geometricPrecision" transform="matrix(1,0,0,1,-559,-130)" stroke-linecap="butt">
      <path fill="none" d="M1032.7316 1051.8173 L1210.0065 1051.8173 L1210.0065 1103.2241 L1032.7316 1103.2241 Z" clip-path="url(#clipPath2)"/>
      <text x="1038.705" xml:space="preserve" y="1067.7062" clip-path="url(#clipPath2)" font-family="sans-serif" stroke="none">Обнуление двух младших</text>
      <text x="1039.0741" xml:space="preserve" y="1081.6749" clip-path="url(#clipPath2)" font-family="sans-serif" stroke="none">байтов счетчика тиков по</text>
      <text x="1067.3925" xml:space="preserve" y="1095.6437" clip-path="url(#clipPath2)" font-family="sans-serif" stroke="none">адресу DS:006Ch</text>
    </g>
    <g text-rendering="geometricPrecision" stroke-miterlimit="1.45" shape-rendering="geometricPrecision" transform="matrix(1,0,0,1,-559,-130)" stroke-linecap="butt">
      <path fill="none" d="M1032.7316 1132.1071 L1210.0065 1132.1071 L1210.0065 1183.5139 L1032.7316 1183.5139 Z" clip-path="url(#clipPath2)"/>
      <text x="1055.7528" xml:space="preserve" y="1154.9803" clip-path="url(#clipPath2)" font-family="sans-serif" stroke="none">Загрузка значения 1</text>
      <text x="1076.3485" xml:space="preserve" y="1168.9491" clip-path="url(#clipPath2)" font-family="sans-serif" stroke="none">по адресу 70h</text>
    </g>
    <g text-rendering="geometricPrecision" stroke-miterlimit="1.45" shape-rendering="geometricPrecision" transform="matrix(1,0,0,1,-559,-130)" stroke-linecap="butt">
      <path fill="none" d="M1032.7316 1217.3162 L1210.0065 1217.3162 L1210.0065 1268.723 L1032.7316 1268.723 Z" clip-path="url(#clipPath2)"/>
      <text x="1058.3632" xml:space="preserve" y="1240.1895" clip-path="url(#clipPath2)" font-family="sans-serif" stroke="none">Установка третьего</text>
      <text x="1091.7997" xml:space="preserve" y="1254.1582" clip-path="url(#clipPath2)" font-family="sans-serif" stroke="none">бита в AL</text>
    </g>
    <g text-rendering="geometricPrecision" stroke-miterlimit="1.45" shape-rendering="geometricPrecision" transform="matrix(1,0,0,1,-559,-130)" stroke-linecap="butt">
      <rect fill="none" x="602.3625" width="177.2749" height="51.4068" y="212.3892" clip-path="url(#clipPath2)"/>
      <path fill="none" d="M612.3625 212.3892 L612.3625 263.796 M769.6375 212.3892 L769.6375 263.796 M612.3625 212.3892 Z" clip-path="url(#clipPath2)"/>
      <text x="622.2695" xml:space="preserve" y="235.2625" clip-path="url(#clipPath2)" font-family="sans-serif" stroke="none">Вызов подпрограммы</text>
      <text x="673.4453" xml:space="preserve" y="249.2313" clip-path="url(#clipPath2)" font-family="sans-serif" stroke="none">sub_1</text>
    </g>
    <g text-rendering="geometricPrecision" stroke-miterlimit="1.45" shape-rendering="geometricPrecision" transform="matrix(1,0,0,1,-559,-130)" stroke-linecap="butt">
      <circle fill="none" r="20" clip-path="url(#clipPath2)" cx="690.493" cy="1356.8829"/>
      <text x="686.3885" xml:space="preserve" y="1361.0372" clip-path="url(#clipPath2)" font-family="sans-serif" stroke="none">А</text>
    </g>
    <g text-rendering="geometricPrecision" stroke-miterlimit="1.45" shape-rendering="geometricPrecision" transform="matrix(1,0,0,1,-559,-130)" stroke-linecap="butt">
      <path fill="none" d="M691 339.8523 L691 356.4641" clip-path="url(#clipPath2)"/>
    </g>
    <g text-rendering="geometricPrecision" stroke-miterlimit="1.45" shape-rendering="geometricPrecision" transform="matrix(1,0,0,1,-559,-130)" stroke-linecap="butt">
      <path d="M691 364.4641 L696 352.4641 L691 355.4641 L686 352.4641 Z" stroke="none" clip-path="url(#clipPath2)"/>
      <path fill="none" d="M691 415.8843 L691 432.4961" clip-path="url(#clipPath2)"/>
      <path d="M691 440.4961 L696 428.4961 L691 431.4961 L686 428.4961 Z" clip-path="url(#clipPath2)" stroke="none"/>
      <path fill="none" d="M691 491.8792 L691 508.4556" clip-path="url(#clipPath2)"/>
      <path d="M691 516.4556 L696 504.4556 L691 507.4556 L686 504.4556 Z" clip-path="url(#clipPath2)" stroke="none"/>
      <path fill="none" d="M691 567.805 L691 580.6554" clip-path="url(#clipPath2)"/>
      <path d="M691 588.6554 L696 576.6554 L691 579.6554 L686 576.6554 Z" clip-path="url(#clipPath2)" stroke="none"/>
      <path fill="none" d="M807.0665 635.9097 L907.0455 635.9097 L907.0455 635.9097 L907.0455 681.6109" clip-path="url(#clipPath2)"/>
      <path d="M907.0455 689.6109 L912.0455 677.6109 L907.0455 680.6109 L902.0455 677.6109 Z" clip-path="url(#clipPath2)" stroke="none"/>
      <text x="826.8258" xml:space="preserve" y="628.3969" clip-path="url(#clipPath2)" font-family="sans-serif" stroke="none">Нет</text>
      <path fill="none" d="M907.0455 741.0129 L907.0455 781.1797 L888.2613 781.1797 L691 781.1797 L691 798.981" clip-path="url(#clipPath2)"/>
      <path d="M691 806.981 L696 794.981 L691 797.981 L686 794.981 Z" clip-path="url(#clipPath2)" stroke="none"/>
      <path fill="none" d="M691 683.1761 L691 696.1472 L691 716.6738 L691 734.17 L691 740.5071 L691 773.3217 L691 802.4724 L691 806.9769" clip-path="url(#clipPath2)"/>
      <path d="M691 806.9769 L696 794.9769 L691 797.9769 L686 794.9769 Z" clip-path="url(#clipPath2)" stroke="none"/>
      <text x="647.9596" xml:space="preserve" y="710.5648" clip-path="url(#clipPath2)" font-family="sans-serif" stroke="none">Да</text>
      <path fill="none" d="M807.0665 854.2657 L907.0455 854.2657 L907.0455 869.9818 L907.0455 869.9818 L907.0752 879.4287" clip-path="url(#clipPath2)"/>
      <path d="M907.1003 887.4286 L912.0626 875.413 L907.072 878.4287 L902.0626 875.4444 Z" clip-path="url(#clipPath2)" stroke="none"/>
      <text x="827.7948" xml:space="preserve" y="842.4958" clip-path="url(#clipPath2)" font-family="sans-serif" stroke="none">Нет</text>
      <path fill="none" d="M1023.3282 934.5952 L1098.1206 934.5952 L1121.369 934.5952 L1121.369 938.144 L1121.369 963.5246" clip-path="url(#clipPath2)"/>
      <path d="M1121.369 971.5246 L1126.369 959.5246 L1121.369 962.5246 L1116.369 959.5246 Z" clip-path="url(#clipPath2)" stroke="none"/>
      <text x="1060.6505" xml:space="preserve" y="923.6838" clip-path="url(#clipPath2)" font-family="sans-serif" stroke="none">Нет</text>
      <path fill="none" d="M1121.369 1022.9095 L1121.369 1043.8417" clip-path="url(#clipPath2)"/>
      <path d="M1121.369 1051.8417 L1126.369 1039.8417 L1121.369 1042.8417 L1116.369 1039.8417 Z" clip-path="url(#clipPath2)" stroke="none"/>
      <path fill="none" d="M1121.369 1103.1992 L1121.369 1124.1315" clip-path="url(#clipPath2)"/>
      <path d="M1121.369 1132.1315 L1126.369 1120.1315 L1121.369 1123.1315 L1116.369 1120.1315 Z" clip-path="url(#clipPath2)" stroke="none"/>
      <path fill="none" d="M1121.369 1183.4813 L1121.369 1209.2914" clip-path="url(#clipPath2)"/>
      <path d="M1121.369 1217.2914 L1126.369 1205.2914 L1121.369 1208.2914 L1116.369 1205.2914 Z" clip-path="url(#clipPath2)" stroke="none"/>
      <path fill="none" d="M691 170.2684 L691 204.3605" clip-path="url(#clipPath2)"/>
      <path d="M691 212.3605 L696 200.3605 L691 203.3605 L686 200.3605 Z" clip-path="url(#clipPath2)" stroke="none"/>
      <path fill="none" d="M691 263.8202 L691 280.432" clip-path="url(#clipPath2)"/>
      <path d="M691 288.432 L696 276.432 L691 279.432 L686 276.432 Z" clip-path="url(#clipPath2)" stroke="none"/>
      <path fill="none" d="M690.9524 901.4781 L690.5212 1328.8978" clip-path="url(#clipPath2)"/>
      <path d="M690.5132 1336.8978 L695.5253 1324.9028 L690.5222 1327.8978 L685.5253 1324.8928 Z" clip-path="url(#clipPath2)" stroke="none"/>
      <text x="652.5468" xml:space="preserve" y="946.644" clip-path="url(#clipPath2)" font-family="sans-serif" stroke="none">Да</text>
      <path fill="none" d="M907.2484 981.8755 L907.2484 1307.3772 L690.493 1307.3772 L690.493 1328.9098" clip-path="url(#clipPath2)"/>
      <path d="M690.493 1336.9098 L695.493 1324.9098 L690.493 1327.9098 L685.493 1324.9098 Z" clip-path="url(#clipPath2)" stroke="none"/>
      <text x="868.8841" xml:space="preserve" y="1024.7239" clip-path="url(#clipPath2)" font-family="sans-serif" stroke="none">Да</text>
      <path fill="none" d="M1121.369 1268.6935 L1121.369 1307.3772 L690.493 1307.3772 L690.493 1328.9098" clip-path="url(#clipPath2)"/>
      <path d="M690.493 1336.9098 L695.493 1324.9098 L690.493 1327.9098 L685.493 1324.9098 Z" clip-path="url(#clipPath2)" stroke="none"/>
    </g>
  </g>
</svg>
