<?xml version="1.0" encoding="UTF-8"?><svg xmlns="http://www.w3.org/2000/svg" xmlns:xlink="http://www.w3.org/1999/xlink" fill-opacity="1" color-rendering="auto" color-interpolation="auto" text-rendering="auto" stroke="black" stroke-linecap="square" width="520" stroke-miterlimit="10" shape-rendering="auto" stroke-opacity="1" fill="black" stroke-dasharray="none" font-weight="normal" stroke-width="1" height="725" font-family="'Dialog'" font-style="normal" stroke-linejoin="miter" font-size="12px" stroke-dashoffset="0" image-rendering="auto">
  <!--Generated by ySVG 2.6-->
  <defs id="genericDefs"/>
  <g>
    <defs id="defs1">
      <clipPath clipPathUnits="userSpaceOnUse" id="clipPath1">
        <path d="M0 0 L520 0 L520 725 L0 725 L0 0 Z"/>
      </clipPath>
      <clipPath clipPathUnits="userSpaceOnUse" id="clipPath2">
        <path d="M362 449 L882 449 L882 1174 L362 1174 L362 449 Z"/>
      </clipPath>
    </defs>
    <g fill="white" text-rendering="geometricPrecision" shape-rendering="geometricPrecision" transform="translate(-362,-449)" stroke="white">
      <rect x="362" width="520" height="725" y="449" clip-path="url(#clipPath2)" stroke="none"/>
    </g>
    <g text-rendering="geometricPrecision" stroke-miterlimit="1.45" shape-rendering="geometricPrecision" transform="matrix(1,0,0,1,-362,-449)" stroke-linecap="butt">
      <path fill="none" d="M496 592.0814 L614.0054 630.8394 L496 669.5972 L377.9946 630.8394 Z" clip-path="url(#clipPath2)"/>
      <text x="439.3926" xml:space="preserve" y="621.0249" clip-path="url(#clipPath2)" font-family="sans-serif" stroke="none">PF в копии FLAGS </text>
      <text x="430.9873" xml:space="preserve" y="634.9937" clip-path="url(#clipPath2)" font-family="sans-serif" stroke="none">по адресу DS:0314h </text>
      <text x="456.2148" xml:space="preserve" y="648.9624" clip-path="url(#clipPath2)" font-family="sans-serif" stroke="none">установлен?</text>
    </g>
    <g text-rendering="geometricPrecision" stroke-miterlimit="1.45" shape-rendering="geometricPrecision" transform="matrix(1,0,0,1,-362,-449)" stroke-linecap="butt">
      <path fill="none" d="M689.3142 685.437 L866.5892 685.437 L866.5892 725.437 L689.3142 725.437 Z" clip-path="url(#clipPath2)"/>
      <text x="718.6636" xml:space="preserve" y="709.5912" clip-path="url(#clipPath2)" font-family="sans-serif" stroke="none">Сохранение FLAGS</text>
    </g>
    <g text-rendering="geometricPrecision" stroke-miterlimit="1.45" shape-rendering="geometricPrecision" transform="matrix(1,0,0,1,-362,-449)" stroke-linecap="butt">
      <path fill="none" d="M407.3625 534.3089 L584.6375 534.3089 L584.6375 574.3089 L407.3625 574.3089 Z" clip-path="url(#clipPath2)"/>
      <text x="409.0645" xml:space="preserve" y="551.4788" clip-path="url(#clipPath2)" font-family="sans-serif" stroke="none">Проверка PF в копии FLAGS</text>
      <text x="432.8945" xml:space="preserve" y="565.4476" clip-path="url(#clipPath2)" font-family="sans-serif" stroke="none">по адресу DS:0314h</text>
    </g>
    <g text-rendering="geometricPrecision" stroke-miterlimit="1.45" shape-rendering="geometricPrecision" transform="matrix(1,0,0,1,-362,-449)" stroke-linecap="butt">
      <path fill="none" d="M689.3142 755.437 L866.5892 755.437 L866.5892 804.3089 L689.3142 804.3089 Z" clip-path="url(#clipPath2)"/>
      <text x="720.5269" xml:space="preserve" y="770.0585" clip-path="url(#clipPath2)" font-family="sans-serif" stroke="none">Косвенный вызов </text>
      <text x="695.0562" xml:space="preserve" y="784.0272" clip-path="url(#clipPath2)" font-family="sans-serif" stroke="none">обработчика прерывания </text>
      <text x="766.1422" xml:space="preserve" y="797.996" clip-path="url(#clipPath2)" font-family="sans-serif" stroke="none">1Ch</text>
    </g>
    <g text-rendering="geometricPrecision" stroke-miterlimit="1.45" shape-rendering="geometricPrecision" transform="matrix(1,0,0,1,-362,-449)" stroke-linecap="butt">
      <path fill="none" d="M407.3625 734.8937 L584.6375 734.8937 L584.6375 774.8937 L407.3625 774.8937 Z" clip-path="url(#clipPath2)"/>
      <text x="434.374" xml:space="preserve" y="752.0637" clip-path="url(#clipPath2)" font-family="sans-serif" stroke="none">Вызов обработчика</text>
      <text x="443.6699" xml:space="preserve" y="766.0324" clip-path="url(#clipPath2)" font-family="sans-serif" stroke="none">прерывания 1Ch</text>
    </g>
    <g text-rendering="geometricPrecision" stroke-miterlimit="1.45" shape-rendering="geometricPrecision" transform="matrix(1,0,0,1,-362,-449)" stroke-linecap="butt">
      <rect fill="none" x="407.3625" width="177.2749" height="40" y="875.6464" clip-path="url(#clipPath2)"/>
      <path fill="none" d="M417.3625 875.6464 L417.3625 915.6464 M574.6375 875.6464 L574.6375 915.6464 M417.3625 875.6464 Z" clip-path="url(#clipPath2)"/>
      <text x="427.2695" xml:space="preserve" y="892.8163" clip-path="url(#clipPath2)" font-family="sans-serif" stroke="none">Вызов подпрограммы</text>
      <text x="478.4453" xml:space="preserve" y="906.7851" clip-path="url(#clipPath2)" font-family="sans-serif" stroke="none">sub_1</text>
    </g>
    <g text-rendering="geometricPrecision" stroke-miterlimit="1.45" shape-rendering="geometricPrecision" transform="matrix(1,0,0,1,-362,-449)" stroke-linecap="butt">
      <path fill="none" d="M407.3625 948.4161 L584.6375 948.4161 L584.6375 1011.7368 L407.3625 1011.7368 Z" clip-path="url(#clipPath2)"/>
      <text x="422.4297" xml:space="preserve" y="963.2776" clip-path="url(#clipPath2)" font-family="sans-serif" stroke="none">Передача контроллеру</text>
      <text x="415.6973" xml:space="preserve" y="977.2464" clip-path="url(#clipPath2)" font-family="sans-serif" stroke="none">прерываний команды об </text>
      <text x="408.3027" xml:space="preserve" y="991.2151" clip-path="url(#clipPath2)" font-family="sans-serif" stroke="none">окончании прерывания 20h</text>
      <text x="460.4072" xml:space="preserve" y="1005.1839" clip-path="url(#clipPath2)" font-family="sans-serif" stroke="none">в порт 20h </text>
    </g>
    <g text-rendering="geometricPrecision" stroke-miterlimit="1.45" shape-rendering="geometricPrecision" transform="matrix(1,0,0,1,-362,-449)" stroke-linecap="butt">
      <path fill="none" d="M407.3625 1041.7368 L584.6375 1041.7368 L584.6375 1081.7368 L407.3625 1081.7368 Z" clip-path="url(#clipPath2)"/>
      <text x="444.2734" xml:space="preserve" y="1058.9067" clip-path="url(#clipPath2)" font-family="sans-serif" stroke="none">Восстановление</text>
      <text x="451.583" xml:space="preserve" y="1072.8755" clip-path="url(#clipPath2)" font-family="sans-serif" stroke="none">DX, AX, DS, ES</text>
    </g>
    <g text-rendering="geometricPrecision" stroke-miterlimit="1.45" shape-rendering="geometricPrecision" transform="matrix(1,0,0,1,-362,-449)" stroke-linecap="butt">
      <rect x="456" y="1132.4623" clip-path="url(#clipPath2)" fill="none" width="80" rx="13.0688" ry="13.0688" height="26.1375"/>
      <text x="476.3711" xml:space="preserve" y="1149.6853" clip-path="url(#clipPath2)" font-family="sans-serif" stroke="none">Конец</text>
    </g>
    <g text-rendering="geometricPrecision" stroke-miterlimit="1.45" shape-rendering="geometricPrecision" transform="matrix(1,0,0,1,-362,-449)" stroke-linecap="butt">
      <circle fill="none" r="20" clip-path="url(#clipPath2)" cx="496" cy="484.3089"/>
      <text x="491.8838" xml:space="preserve" y="488.4632" clip-path="url(#clipPath2)" font-family="sans-serif" stroke="none">Б</text>
    </g>
    <g text-rendering="geometricPrecision" stroke-miterlimit="1.45" shape-rendering="geometricPrecision" transform="matrix(1,0,0,1,-362,-449)" stroke-linecap="butt">
      <path fill="none" d="M614.0191 630.8394 L777.9517 630.8394 L777.9517 677.4398" clip-path="url(#clipPath2)"/>
    </g>
    <g text-rendering="geometricPrecision" stroke-miterlimit="1.45" shape-rendering="geometricPrecision" transform="matrix(1,0,0,1,-362,-449)" stroke-linecap="butt">
      <path d="M777.9517 685.4398 L782.9517 673.4398 L777.9517 676.4398 L772.9517 673.4398 Z" stroke="none" clip-path="url(#clipPath2)"/>
      <text x="679.6205" xml:space="preserve" y="620.4028" clip-path="url(#clipPath2)" font-family="sans-serif" stroke="none">Нет</text>
      <path fill="none" d="M496 574.301 L496 584.1072" clip-path="url(#clipPath2)"/>
      <path d="M496 592.1072 L501 580.1072 L496 583.1072 L491 580.1072 Z" clip-path="url(#clipPath2)" stroke="none"/>
      <path fill="none" d="M777.9517 725.4634 L777.9517 747.4577" clip-path="url(#clipPath2)"/>
      <path d="M777.9517 755.4577 L782.9517 743.4577 L777.9517 746.4577 L772.9517 743.4577 Z" clip-path="url(#clipPath2)" stroke="none"/>
      <path fill="none" d="M496 669.5721 L496 709.9267 L496 726.9133" clip-path="url(#clipPath2)"/>
      <path d="M496 734.9133 L501 722.9133 L496 725.9133 L491 722.9133 Z" clip-path="url(#clipPath2)" stroke="none"/>
      <text x="470.9257" xml:space="preserve" y="699.0981" clip-path="url(#clipPath2)" font-family="sans-serif" stroke="none">Да</text>
      <path fill="none" d="M496 774.8904 L496 817.9957 L496 852.4697 L496 867.6182" clip-path="url(#clipPath2)"/>
      <path d="M496 875.6182 L501 863.6182 L496 866.6182 L491 863.6182 Z" clip-path="url(#clipPath2)" stroke="none"/>
      <path fill="none" d="M777.9517 804.2963 L777.9517 852.4697 L496 852.4697 L496 867.6182" clip-path="url(#clipPath2)"/>
      <path d="M496 875.6182 L501 863.6182 L496 866.6182 L491 863.6182 Z" clip-path="url(#clipPath2)" stroke="none"/>
      <path fill="none" d="M496 915.6409 L496 940.3936" clip-path="url(#clipPath2)"/>
      <path d="M496 948.3936 L501 936.3936 L496 939.3936 L491 936.3936 Z" clip-path="url(#clipPath2)" stroke="none"/>
      <path fill="none" d="M496 1011.7757 L496 1033.7816" clip-path="url(#clipPath2)"/>
      <path d="M496 1041.7816 L501 1029.7816 L496 1032.7816 L491 1029.7816 Z" clip-path="url(#clipPath2)" stroke="none"/>
      <path fill="none" d="M496 1081.7443 L496 1124.481" clip-path="url(#clipPath2)"/>
      <path d="M496 1132.481 L501 1120.481 L496 1123.481 L491 1120.481 Z" clip-path="url(#clipPath2)" stroke="none"/>
      <path fill="none" d="M496 504.304 L496 526.3362" clip-path="url(#clipPath2)"/>
      <path d="M496 534.3362 L501 522.3362 L496 525.3362 L491 522.3362 Z" clip-path="url(#clipPath2)" stroke="none"/>
    </g>
  </g>
</svg>
